<svg width="360" height="360" viewBox="0 0 360 360" fill="none" xmlns="http://www.w3.org/2000/svg">
<g clip-path="url(#clip0_137_227)">
<rect width="360" height="360" fill="white"/>
<path d="M0 0C118.8 0 237.6 0 360 0C360 118.8 360 237.6 360 360C241.2 360 122.4 360 0 360C0 241.2 0 122.4 0 0Z" fill="#FEFEFD"/>
<path d="M0 0C118.8 0 237.6 0 360 0C360 118.8 360 237.6 360 360C241.2 360 122.4 360 0 360C0 241.2 0 122.4 0 0Z" fill="#FEFEFD" fill-opacity="0.2"/>
<path d="M180 25.4409C184.039 25.4477 192.114 28.7385 192.114 41.8472C194.486 43.9517 199.232 49.9527 199.232 57.1177C199.232 64.2825 196.728 69.4462 195.476 71.1323L196.198 73.8237C196.96 74.1949 198.486 75.5342 198.486 77.9224C198.486 80.3103 196.727 81.9642 195.847 82.4927C196.727 83.4572 198.486 85.9453 198.486 88.1841C198.486 90.4231 196.96 92.2271 196.198 92.8491C197.924 93.7821 201.377 96.6557 201.377 100.686C201.377 104.716 199.45 106.47 198.486 106.843C200.041 107.154 203.15 108.672 203.15 112.254C203.15 115.837 200.538 117.79 199.232 118.319C201.347 118.816 205.576 120.465 205.576 123.077C205.576 125.689 205.078 127.275 204.83 127.742C212.293 122.888 227.22 103.815 227.22 66.353C231.179 67.0017 239.096 71.4335 239.096 83.9692C241.174 84.0865 245.61 83.2714 246.735 79.0728C249.828 79.9518 254.668 86.7361 249.281 106.843C251.542 106.343 256.314 104.412 257.312 100.686C259.402 106.475 260.72 120.402 249.281 129.804C251.892 130.492 257.468 131.455 258.878 129.804C257.377 137.117 252.297 152.055 243.992 153.309C245.755 153.831 249.281 155.739 249.281 159.186C249.28 162.633 245.037 164.867 242.915 165.552V186.216C254.886 197.256 278.829 225.388 278.829 249.596V279.048C281.001 279.194 285.347 280.68 285.347 285.459C285.347 290.239 281.291 291.507 279.263 291.543V322.836C281.291 323.115 285.347 324.633 285.347 328.476C285.347 332.319 281.291 334.133 279.263 334.559H80.7368C78.709 334.133 74.6531 332.319 74.6528 328.476C74.6528 324.633 78.7089 323.115 80.7368 322.836V291.543C78.7089 291.507 74.6528 290.239 74.6528 285.459C74.6529 280.68 78.9986 279.194 81.1714 279.048V249.596C81.1714 225.388 105.114 197.256 117.085 186.216V165.552C114.963 164.867 110.72 162.633 110.719 159.186C110.719 155.739 114.245 153.831 116.008 153.309C107.703 152.055 102.623 137.117 101.122 129.804C102.532 131.455 108.108 130.492 110.719 129.804C99.2797 120.402 100.598 106.475 102.688 100.686C103.686 104.412 108.458 106.343 110.719 106.843C105.332 86.7361 110.172 79.9518 113.265 79.0728C114.39 83.2714 118.826 84.0865 120.904 83.9692C120.904 71.4335 128.821 67.0017 132.78 66.353C132.78 103.815 147.707 122.888 155.17 127.742C154.922 127.275 154.424 125.689 154.424 123.077C154.424 120.465 158.653 118.816 160.768 118.319C159.462 117.79 156.85 115.837 156.85 112.254C156.85 108.672 159.959 107.154 161.514 106.843C160.55 106.47 158.623 104.716 158.623 100.686C158.623 96.6557 162.076 93.7821 163.802 92.8491C163.04 92.2271 161.514 90.4231 161.514 88.1841C161.514 85.9453 163.273 83.4572 164.153 82.4927C163.273 81.9642 161.514 80.3103 161.514 77.9224C161.514 75.5342 163.04 74.1949 163.802 73.8237L164.524 71.1323C163.272 69.4462 160.768 64.2825 160.768 57.1177C160.768 49.9527 165.514 43.9517 167.886 41.8472C167.886 28.7385 175.961 25.4477 180 25.4409H180Z" fill="#B89C5B"/>
</g>
<defs>
<clipPath id="clip0_137_227">
<rect width="360" height="360" fill="white"/>
</clipPath>
</defs>
</svg>
